<svg width="676" height="676" viewBox="0 0 676 676" fill="none" xmlns="http://www.w3.org/2000/svg">
<path d="M338 0.5C151.6 0.5 0.5 151.6 0.5 338C0.5 524.4 151.6 675.5 338 675.5C524.4 675.5 675.5 524.4 675.5 338C675.5 151.6 524.4 0.5 338 0.5ZM487.5 291.5C487.5 291.5 486.5 297.5 484.5 304.5C482.5 311.5 476.5 321.5 476.5 321.5C476.5 321.5 471.5 328.5 463.5 334.5C455.5 340.5 440.5 344.5 440.5 344.5C440.5 344.5 460.5 356.5 467.5 365.5C474.5 374.5 477.5 383.5 477.5 383.5C479.5 390.5 480.5 402.5 478.5 415.5C476.5 428.5 472.5 438.5 472.5 438.5C472.5 438.5 466.5 452.5 461.5 459.5C456.5 466.5 451.5 470.5 451.5 470.5C451.5 470.5 433.5 486.5 408.5 489.5C383.5 492.5 343.5 484.5 343.5 484.5L328.5 545.5L291.5 537.5L306.5 475.5L276.5 468.5L261.5 529.5L224.5 520.5L239.5 458.5L165.5 439.5L183.5 397.5C183.5 397.5 208.5 403.5 215.5 404.5C218.42 404.92 220.81 403.77 222.62 402.29C224.89 400.43 226.42 397.82 227.15 394.97C232.38 374.5 267.58 236.39 268.5 222.5C269.5 207.5 225.5 200.5 225.5 200.5L234.5 160.5L309.5 179.5L324.5 118.5L361.5 127.5L347.5 187.5L376.5 194.5L391.5 135.5L428.5 144.5L413.5 205.5C413.5 205.5 439.5 215.5 450.5 221.5C461.5 227.5 472.5 239.5 472.5 239.5C481.5 248.5 486.5 263.5 486.5 263.5C489.5 272.5 487.5 291.5 487.5 291.5Z" fill="#2565E9"/>
<path d="M405.12 257.34C403.94 256.17 402.69 255.11 401.44 254.37C401.44 254.37 395.52 250.17 390.67 247.95C389.84 247.57 389.03 247.16 388.22 246.72C386.69 245.9 383.6 244.38 378.39 242.45C370.38 239.48 336.35 230.6 336.35 230.6L318.62 305.67L352.26 312.82C355.65 313.54 355.65 313.54 359.66 313.91C363.22 314.24 368.69 314.63 374.17 314.72C381.63 314.85 389.07 313.67 396.02 310.96C397.28 310.47 398.5 309.94 399.63 309.37C406.07 306.12 409.6 300.33 411.58 296.33C413.56 292.33 415.55 287.32 415.53 281.32C415.52 278.76 414.78 275.48 413.93 272.55C412.29 266.84 409.34 261.54 405.12 257.34Z" fill="#2565E9"/>
<path d="M392.31 373.63C390.96 372.31 389.52 371.11 388.07 370.25C388.07 370.25 381.24 365.46 375.62 362.88C374.65 362.44 373.71 361.96 372.78 361.46C371.01 360.51 367.43 358.75 361.38 356.49C352.07 353 309.54 342.31 309.54 342.31L289.84 424.85L329.06 433.61C333.01 434.49 333.01 434.49 337.7 435.01C341.86 435.47 348.25 436.09 354.67 436.28C363.92 436.55 372.61 435.44 380.35 432.68C381.83 432.15 383.28 431.61 384.61 431.02C392.23 427.59 396.5 421.29 398.93 416.91C401.36 412.53 403.8 407.05 403.92 400.41C403.97 397.58 403.19 393.93 402.27 390.67C400.47 384.31 397.15 378.38 392.31 373.63Z" fill="#2565E9"/>
</svg>
