
<svg xmlns="http://www.w3.org/2000/svg" version="1.1" xmlns:xlink="http://www.w3.org/1999/xlink" preserveAspectRatio="none" x="0px" y="0px" width="2000px" height="1700px" viewBox="0 0 2000 1700">
<defs>
<g id="Layer0_0_FILL">
<path fill="#2565E9" stroke="none" d="
M 1467.9 254.2
Q 1464.95 253.15 1464.7 258.1
L 1464.7 282.75
Q 1465.65 303.5 1476.2 323.45
L 1488.75 344.1 1518 390.55
Q 1522.55 395.1 1526.6 394.2 1529.05 390 1528.55 382.7 1528.85 350.75 1520.95 336.7 1495 289.8 1467.9 254.2
M 1474.95 281.4
Q 1473.9 278.35 1474.65 277.9 1475.35 277.5 1477.5 279.95 1479.65 282.45 1481.9 286.45 1484.2 290.4 1485.35 293.5 1486.4 296.55 1485.7 296.95 1484.95 297.4 1482.8 294.95 1480.65 292.45 1478.35 288.5 1476.1 284.5 1474.95 281.4
M 1504.15 324.05
Q 1503.1 321 1503.85 320.55 1504.55 320.15 1506.7 322.6 1508.85 325.1 1511.1 329.05 1513.4 333.05 1514.55 336.15 1515.6 339.2 1514.9 339.6 1514.15 340.05 1512 337.6 1509.85 335.1 1507.55 331.1 1505.3 327.15 1504.15 324.05
M 1480.05 312.85
Q 1482.2 315.35 1484.45 319.3 1486.75 323.3 1487.9 326.4 1488.95 329.45 1488.25 329.85 1487.5 330.3 1485.35 327.85 1483.2 325.35 1480.9 321.35 1478.65 317.4 1477.5 314.3 1476.45 311.25 1477.2 310.8 1477.9 310.4 1480.05 312.85
M 1510.4 365.65
Q 1508.15 361.7 1507 358.6 1505.95 355.55 1506.7 355.1 1507.4 354.7 1509.55 357.15 1511.7 359.65 1513.95 363.6 1516.25 367.6 1517.4 370.7 1518.45 373.75 1517.75 374.15 1517 374.6 1514.85 372.15 1512.7 369.65 1510.4 365.65
M 1651.75 306.9
L 1651.7 297.35
Q 1650.95 285.45 1640.85 289.25 1590.65 309.1 1543.65 341.8 1536.65 348.35 1535.6 356.9
L 1535.6 386.75
Q 1536.8 402.9 1551.85 399.85
L 1619.65 366.7
Q 1629.8 361.2 1634.9 355.65 1652.3 340.65 1651.75 306.9
M 1627.45 340.7
Q 1632 338.7 1634.35 339.15 1636.65 339.65 1635.45 342.35 1634.15 345 1630 348.25 1625.95 351.55 1621.35 353.6 1616.85 355.55 1614.45 355.05 1612.1 354.65 1613.4 352 1614.6 349.3 1618.75 345.95 1622.85 342.7 1627.45 340.7
M 1560.25 342.05
Q 1564.35 338.8 1568.95 336.8 1573.5 334.8 1575.85 335.25 1578.15 335.75 1576.95 338.45 1575.65 341.1 1571.5 344.35 1567.45 347.65 1562.85 349.7 1558.35 351.65 1555.95 351.15 1553.6 350.75 1554.9 348.1 1556.1 345.4 1560.25 342.05
M 1626.95 285.3
Q 1643.65 274.8 1638.8 261.65 1614.2 224.3 1589.6 197.2 1578.35 187.95 1556.7 194.7 1516.7 206.4 1480.65 230.9 1475.45 235.05 1474.05 241.1 1472.35 251.7 1483.25 266.25
L 1518.4 316.1
Q 1531.1 330.55 1547 326.45
L 1626.95 285.3
M 1572.7 209.65
Q 1577.65 210.95 1579.45 214.7 1581.2 218.55 1578.8 222.6 1576.35 226.65 1571.15 228.5 1565.9 230.45 1560.95 229.15 1556 227.8 1554.25 223.95 1552.45 220.25 1554.9 216.2 1557.3 212.15 1562.55 210.15 1567.75 208.3 1572.7 209.65
M 1551.5 236.6
Q 1549.05 240.65 1543.85 242.5 1538.65 244.45 1533.7 243.15 1528.75 241.8 1526.95 237.95 1525.15 234.25 1527.6 230.2 1530 226.15 1535.25 224.15 1540.45 222.3 1545.4 223.65 1550.35 224.95 1552.15 228.7 1553.9 232.55 1551.5 236.6
M 1565.9 287.25
Q 1560.95 285.9 1559.15 282.05 1557.35 278.35 1559.8 274.3 1562.2 270.25 1567.45 268.25 1572.65 266.4 1577.6 267.75 1582.55 269.05 1584.35 272.8 1586.1 276.65 1583.7 280.7 1581.25 284.75 1576.05 286.6 1570.85 288.55 1565.9 287.25
M 1539.45 280.5
Q 1544.65 278.65 1549.6 280 1554.55 281.3 1556.35 285.05 1558.1 288.9 1555.7 292.95 1553.25 297 1548.05 298.85 1542.85 300.8 1537.9 299.5 1532.95 298.15 1531.15 294.3 1529.35 290.6 1531.8 286.55 1534.2 282.5 1539.45 280.5
M 1604.9 253.75
Q 1609.85 255.05 1611.65 258.8 1613.4 262.65 1611 266.7 1608.55 270.75 1603.35 272.6 1598.1 274.55 1593.15 273.25 1588.2 271.9 1586.45 268.05 1584.65 264.35 1587.1 260.3 1589.5 256.25 1594.75 254.25 1599.95 252.4 1604.9 253.75
M 1517.4 235.9
Q 1522.35 237.2 1524.15 240.95 1525.9 244.8 1523.5 248.85 1521.05 252.9 1515.85 254.75 1510.65 256.7 1505.7 255.4 1500.75 254.05 1498.95 250.2 1497.15 246.5 1499.6 242.45 1502 238.4 1507.25 236.4 1512.45 234.55 1517.4 235.9
M 1774.8 286.75
Q 1772.4 282.95 1769.35 280.2 1741.75 254.5 1640.65 228.8 1637.35 229.85 1637.4 235.75 1656.85 271.4 1676.3 285.8 1684.55 292.75 1691.85 295.4 1737.4 314.3 1781.35 327.45 1794.2 329.7 1790.8 322.05
L 1774.8 286.75
M 1731.75 266.65
Q 1736.05 267.9 1740.95 270.9 1745.8 273.85 1748.35 276.75 1751.05 279.65 1749.9 280.75 1748.7 281.9 1744.3 280.6 1740.1 279.3 1735.25 276.35 1730.4 273.4 1727.8 270.5 1725.2 267.6 1726.35 266.45 1727.45 265.4 1731.75 266.65
M 1703.5 271.05
Q 1704.6 270 1708.9 271.25 1713.2 272.5 1718.1 275.5 1722.95 278.45 1725.5 281.35 1728.2 284.25 1727.05 285.35 1725.85 286.5 1721.45 285.2 1717.25 283.9 1712.4 280.95 1707.55 277.95 1704.95 275.1 1702.35 272.2 1703.5 271.05
M 1703.45 286.85
Q 1706.15 289.75 1705 290.85 1703.8 292 1699.4 290.7 1695.2 289.4 1690.35 286.45 1685.5 283.45 1682.9 280.6 1680.3 277.7 1681.45 276.55 1682.55 275.5 1686.85 276.75 1691.15 278 1696.05 281 1700.9 283.95 1703.45 286.85
M 1818.65 157.95
Q 1834.2 127.05 1813 117.95
L 1725.8 90.75
Q 1700.8 85.05 1684.25 106.15
L 1639.6 188.75
Q 1629.4 206.5 1645.75 219.05
L 1735.05 249.8
Q 1764.9 258 1774.55 240.05
L 1818.65 157.95
M 1791.5 138.25
Q 1795.15 142 1793.95 147.35 1792.85 152.7 1787.7 156.5 1782.45 160.3 1776.2 160.3 1769.9 160.3 1766.3 156.5 1762.6 152.7 1763.7 147.35 1764.9 142 1770.1 138.25 1775.3 134.45 1781.6 134.45 1787.85 134.45 1791.5 138.25
M 1686.35 168.05
Q 1682.75 164.25 1683.85 158.9 1685.1 153.55 1690.4 149.8 1695.65 146 1701.95 146 1708.2 146 1711.8 149.8 1715.35 153.55 1714.1 158.9 1713 164.25 1707.75 168.05 1702.45 171.85 1696.2 171.85 1689.9 171.85 1686.35 168.05
M 1681.8 179
Q 1688.05 179 1691.7 182.8 1695.3 186.55 1694.05 191.9 1692.9 197.25 1687.75 201.05 1682.45 204.85 1676.2 204.85 1669.9 204.85 1666.35 201.05 1662.65 197.25 1663.8 191.9 1665.05 186.55 1670.3 182.8 1675.5 179 1681.8 179
M 1727.15 135.35
Q 1721.9 139.15 1715.65 139.15 1709.35 139.15 1705.75 135.35 1702.1 131.55 1703.25 126.2 1704.5 120.85 1709.7 117.1 1714.95 113.3 1721.25 113.3 1727.5 113.3 1731.1 117.1 1734.75 120.85 1733.5 126.2 1732.35 131.55 1727.15 135.35
M 1749.75 170.5
Q 1754.95 166.7 1761.25 166.7 1767.5 166.7 1771.15 170.5 1774.7 174.25 1773.5 179.6 1772.45 184.95 1767.2 188.75 1761.95 192.55 1755.7 192.55 1749.4 192.55 1745.8 188.75 1742.2 184.95 1743.25 179.6 1744.45 174.25 1749.75 170.5
M 1755.1 212.15
Q 1754 217.5 1748.85 221.3 1743.6 225.1 1737.35 225.1 1731.05 225.1 1727.45 221.3 1723.75 217.5 1724.85 212.15 1726.05 206.8 1731.25 203.05 1736.45 199.25 1742.75 199.25 1749 199.25 1752.65 203.05 1756.3 206.8 1755.1 212.15
M 1845.25 145.8
Q 1838.8 141.85 1832.35 149.8
L 1788.7 235.05
Q 1782.8 245.8 1782.1 254.65 1782.2 271.35 1787 285.8 1792.55 302.45 1802.05 314.1 1811.95 324.3 1821.05 305.4
L 1861.1 221.2
Q 1864.4 211.45 1864.7 204.7 1865.1 169.15 1845.25 145.8
M 1828.45 234.75
Q 1826.55 240.7 1823.65 244.55 1820.85 248.4 1818.8 247.85 1816.7 247.3 1816.55 242.6 1816.5 238 1818.4 232.05 1820.3 226.05 1823.15 222.15 1826 218.35 1828.1 218.9 1830.15 219.45 1830.25 224.1 1830.35 228.75 1828.45 234.75 Z"/>
</g>
</defs>

<g transform="matrix( 4.836395263671875, 0, 0, 4.836395263671875, -7050.8,-351.15) ">
<use xlink:href="#Layer0_0_FILL"/>
</g>
</svg>
