<svg width="990" height="530" viewBox="0 0 990 530" fill="none" xmlns="http://www.w3.org/2000/svg">
<path d="M866.59 7.40997H127.81C63.96 7.40997 12.2 59.17 12.2 123.02V408.8C12.2 472.65 63.96 524.41 127.81 524.41H866.59C930.44 524.41 982.2 472.65 982.2 408.8V123.02C982.2 59.17 930.44 7.40997 866.59 7.40997ZM949.2 410.37C949.2 453.47 914.26 488.41 871.16 488.41H122.24C79.14 488.41 44.2 453.47 44.2 410.37V118.45C44.2 75.35 79.14 40.41 122.24 40.41H871.15C914.25 40.41 949.19 75.35 949.19 118.45V410.37H949.2Z" fill="#2565E9"/>
<path d="M874.32 74.91H124.08C100.4 74.91 81.2 94.11 81.2 117.79V409.03C81.2 432.71 100.4 451.91 124.08 451.91H874.32C898 451.91 917.2 432.71 917.2 409.03V117.79C917.2 94.11 898 74.91 874.32 74.91ZM363.2 364.08C363.2 392.98 339.77 416.41 310.87 416.41H185.53C156.63 416.41 133.2 392.98 133.2 364.08V165.74C133.2 136.84 156.63 113.41 185.53 113.41H310.88C339.78 113.41 363.21 136.84 363.21 165.74V364.08H363.2ZM612.2 364.08C612.2 392.98 588.77 416.41 559.87 416.41H434.53C405.63 416.41 382.2 392.98 382.2 364.08V166.74C382.2 137.84 405.63 114.41 434.53 114.41H559.88C588.78 114.41 612.21 137.84 612.21 166.74V364.08H612.2ZM861.2 364.08C861.2 392.98 837.77 416.41 808.87 416.41H683.53C654.63 416.41 631.2 392.98 631.2 364.08V166.74C631.2 137.84 654.63 114.41 683.53 114.41H808.88C837.78 114.41 861.21 137.84 861.21 166.74V364.08H861.2Z" fill="#2565E9"/>
<path d="M494.7 143.91L424.27 261.31C423.68 262.29 423.37 263.41 423.37 264.55V265.11C423.37 267.31 424.52 269.35 426.4 270.49L461.83 292.02C464.28 293.51 465.97 296.07 466.1 298.93C466.23 301.57 465.04 304.07 459.65 303.3C458.5 303.14 457.39 302.74 456.39 302.15L423.69 282.92L495.69 386.92L567.69 282.92L535.5 301.85C533.69 302.91 531.62 303.5 529.52 303.38C526.8 303.22 524.03 301.84 525.73 296.39C526.39 294.28 527.83 292.49 529.74 291.37L564.78 270.81C566.59 269.75 567.76 267.85 567.88 265.75C567.95 264.47 567.64 263.2 566.97 262.1L494.7 143.91Z" fill="#2565E9"/>
<path d="M245.76 143.41L175.33 260.81C174.74 261.79 174.43 262.91 174.43 264.05V264.61C174.43 266.81 175.58 268.85 177.46 269.99L212.89 291.52C215.34 293.01 217.03 295.57 217.16 298.43C217.29 301.07 216.1 303.57 210.71 302.8C209.56 302.64 208.45 302.24 207.45 301.65L174.75 282.42L246.75 386.42L318.75 282.42L286.56 301.35C284.75 302.41 282.68 303 280.58 302.88C277.86 302.72 275.09 301.34 276.79 295.89C277.45 293.78 278.89 291.99 280.8 290.87L315.84 270.31C317.65 269.25 318.82 267.35 318.94 265.25C319.01 263.97 318.7 262.7 318.03 261.6L245.76 143.41Z" fill="#2565E9"/>
<path d="M745.76 143.91L675.33 261.31C674.74 262.29 674.43 263.41 674.43 264.55V265.11C674.43 267.31 675.58 269.35 677.46 270.49L712.89 292.02C715.34 293.51 717.03 296.07 717.16 298.93C717.29 301.57 716.1 304.07 710.71 303.3C709.56 303.14 708.45 302.74 707.45 302.15L674.75 282.92L746.75 386.92L818.75 282.92L786.56 301.85C784.75 302.91 782.68 303.5 780.58 303.38C777.86 303.22 775.09 301.84 776.79 296.39C777.45 294.28 778.89 292.49 780.8 291.37L815.84 270.81C817.65 269.75 818.82 267.85 818.94 265.75C819.01 264.47 818.7 263.2 818.03 262.1L745.76 143.91Z" fill="#2565E9"/>
</svg>
