<svg width="438" height="435" viewBox="0 0 438 435" fill="none" xmlns="http://www.w3.org/2000/svg">
<path d="M379.66 221.15C379.66 213.2 379.07 205.38 377.96 197.74L428.5 154.09C424.69 141.99 419.85 130.35 414.1 119.26L347.05 124.17C338 112.25 327.33 101.64 315.35 92.66L320.28 25.32C309.23 19.57 297.62 14.73 285.57 10.91L241.29 62.18C234.06 61.18 226.67 60.66 219.17 60.66C211.64 60.66 204.23 61.19 196.97 62.2L152.66 10.9C140.6 14.73 129 19.56 117.95 25.31L122.88 92.72C110.94 101.69 100.29 112.28 91.26 124.17L24.12 119.26C18.38 130.36 13.55 142 9.73999 154.1L60.36 197.82C59.25 205.44 58.66 213.23 58.66 221.16C58.66 228.64 59.18 235.99 60.17 243.2L9.86999 286.64C13.72 298.77 18.6 310.45 24.4 321.57L90.22 316.75C99.44 329.17 110.42 340.21 122.78 349.51L117.99 415.02C129.14 420.82 140.86 425.69 153.03 429.53L195.83 379.97C203.45 381.08 211.23 381.66 219.16 381.66C227.06 381.66 234.82 381.08 242.41 379.98L285.2 429.53C297.37 425.69 309.09 420.82 320.24 415.02L315.45 349.58C327.84 340.27 338.85 329.21 348.09 316.76L413.82 321.57C419.62 310.45 424.5 298.78 428.35 286.64L378.13 243.27C379.13 236.04 379.66 228.66 379.66 221.15ZM219.11 327C160.29 327 112.61 279.32 112.61 220.5C112.61 161.68 160.29 114 219.11 114C277.93 114 325.61 161.68 325.61 220.5C325.61 279.32 277.93 327 219.11 327Z" fill="#2565E9"/>
</svg>
