<svg width="135" height="122" viewBox="0 0 135 122" fill="none" xmlns="http://www.w3.org/2000/svg">
<path d="M13.4782 0.695833C13.0417 1.13237 12.8234 3.36965 12.8234 7.1894V12.9736L9.8222 13.301C6.11159 13.683 3.3832 15.2654 1.47333 18.2121L0 20.4494V67.6505V114.906L1.30963 116.98C2.01901 118.126 3.60147 119.708 4.80196 120.527L7.03924 122H67.3912H127.743L129.98 120.527C131.181 119.708 132.763 118.126 133.473 116.98L134.782 114.906V67.6505V20.4494L133.309 18.2121C131.399 15.2654 128.671 13.683 124.96 13.301L121.959 12.9736V7.1894C121.959 3.36965 121.741 1.13237 121.304 0.695833C120.377 -0.23182 106.08 -0.23182 105.152 0.695833C104.716 1.13237 104.497 3.36965 104.497 7.24397V13.1373H67.3912H30.2851V7.24397C30.2851 3.36965 30.0668 1.13237 29.6303 0.695833C28.7027 -0.23182 14.4059 -0.23182 13.4782 0.695833ZM25.9197 15.32V26.2336H21.5543H17.1888V15.32V4.40644H21.5543H25.9197V15.32ZM117.594 15.32V26.2336H113.228H108.863V15.32V4.40644H113.228H117.594V15.32ZM12.8234 23.396C12.8234 27.2703 13.0417 29.5076 13.4782 29.9442C14.4059 30.8718 28.7027 30.8718 29.6303 29.9442C30.0668 29.5076 30.2851 27.2703 30.2851 23.396V17.5027H67.3912H104.497V23.396C104.497 27.2703 104.716 29.5076 105.152 29.9442C105.589 30.3807 108.208 30.599 113.228 30.599C118.248 30.599 120.868 30.3807 121.304 29.9442C121.741 29.5076 121.959 27.2158 121.959 23.3415V17.339L124.469 17.6664C126.324 17.8301 127.47 18.3758 128.725 19.6309C130.417 21.3225 130.417 21.3225 130.581 28.1434L130.799 34.9644H67.3912H3.98345L4.20172 28.198C4.36542 21.8136 4.47456 21.3225 5.72962 19.9583C7.36665 18.1575 8.67628 17.5573 11.0773 17.5573L12.8234 17.5027V23.396ZM130.581 76.7087L130.417 114.088L128.616 115.834L126.87 117.635H67.3912H7.91233L6.16616 115.834L4.36542 114.088L4.20172 76.7087L4.09258 39.3298H67.3912H130.69L130.581 76.7087Z" fill="#2565E9"/>
<path d="M9.11273 44.35C8.18508 45.2777 8.18508 63.9398 9.11273 64.8675C10.0404 65.7951 28.7026 65.7951 29.6302 64.8675C30.5579 63.9398 30.5579 45.2777 29.6302 44.35C28.7026 43.4224 10.0404 43.4224 9.11273 44.35ZM25.9196 54.6088V61.1569H19.3715H12.8233V54.6088V48.0606H19.3715H25.9196V54.6088Z" fill="#2565E9"/>
<path d="M35.2509 44.4592C34.8144 45.0049 34.5961 48.4426 34.6507 55.8093C34.7052 64.1036 34.5415 66.9411 33.8321 69.0692C32.4679 73.271 32.1951 80.8559 33.2319 85.7124C36.6151 101.701 51.0756 113.542 67.3913 113.542C83.7071 113.542 98.1676 101.701 101.551 85.7124C102.588 80.8559 102.315 73.271 100.951 69.0692C100.241 66.9411 100.077 64.1036 100.132 55.8093C100.187 48.4426 99.9683 45.0049 99.5317 44.4592C98.6041 43.3678 80.1602 43.3678 78.9051 44.4592C78.1412 45.114 77.5409 45.114 74.4851 44.4592C72.5207 44.0772 69.3558 43.6952 67.3913 43.6952C65.4269 43.6952 62.262 44.0772 60.2975 44.4592C57.2417 45.114 56.6415 45.114 55.8775 44.4592C54.6225 43.3678 36.1786 43.3678 35.2509 44.4592ZM49.9296 48.3335C49.9296 48.4426 49.1657 48.9883 48.238 49.4794C47.3104 49.9705 44.8548 52.0441 42.7813 54.1177L39.0161 57.8283V52.9718V48.0607H44.4729C47.4741 48.0607 49.9296 48.1698 49.9296 48.3335ZM73.1755 48.6609C78.5232 49.5885 84.7984 52.9718 88.891 57.1189C100.951 69.1238 100.787 88.4408 88.5636 100.5C84.5802 104.429 78.1412 107.703 72.6298 108.685C59.3153 110.977 45.9462 104.102 40.1074 91.9877C29.0847 69.3421 48.2926 44.1863 73.1755 48.6609ZM95.7666 52.9718V57.8283L92.0014 54.1177C89.9278 52.0441 87.4723 49.9705 86.5446 49.4794C85.617 48.9883 84.853 48.4426 84.853 48.3335C84.853 48.1698 87.3086 48.0607 90.3098 48.0607H95.7666V52.9718Z" fill="#2565E9"/>
<path d="M67.3911 54.5543V56.6824L70.3378 57.0098C74.1575 57.5009 79.2869 59.9565 82.3427 62.8486C85.3985 65.6315 88.4543 71.5248 88.9454 75.6174L89.3274 78.6187H91.4555C93.4199 78.6187 93.5836 78.5095 93.5836 77.0908C93.5836 71.8522 89.9822 64.2128 85.453 59.9019C80.9785 55.6456 73.8847 52.4261 68.919 52.4261C67.5002 52.4261 67.3911 52.5898 67.3911 54.5543Z" fill="#2565E9"/>
<path d="M63.0258 61.1569V63.3396H58.6603H54.2949V65.5223V67.705H56.4776H58.6603V78.6185V89.5321H56.4776H54.2949V91.7148V93.8975H58.6603H63.0258V96.0802V98.2629H65.2085H67.3912V96.0802C67.3912 94.2795 67.5549 93.8975 68.4825 93.8975C69.4102 93.8975 69.5739 94.2795 69.5739 96.0802V98.2629H71.7566C73.9393 98.2629 73.9393 98.2629 73.9393 96.1348C73.9393 94.1704 74.0485 94.0067 75.8492 93.6792C78.3593 93.1881 81.3605 90.5143 82.1791 88.0588C82.9976 85.5486 82.561 82.3837 81.0331 80.2556L79.8872 78.6185L81.0331 76.9815C82.561 74.8534 82.9976 71.6884 82.1791 69.1783C81.3605 66.7228 78.3593 64.0489 75.8492 63.5578C74.0485 63.2304 73.9393 63.0667 73.9393 61.1023C73.9393 58.9741 73.9393 58.9741 71.7566 58.9741H69.5739V61.1569C69.5739 62.9576 69.4102 63.3396 68.4825 63.3396C67.5549 63.3396 67.3912 62.9576 67.3912 61.1569V58.9741H65.2085H63.0258V61.1569ZM76.9406 69.0692C77.8136 69.8877 78.3047 71.0336 78.3047 72.0704C78.3047 73.1072 77.8136 74.2531 76.9406 75.0716C75.6855 76.3813 75.3035 76.4358 69.3011 76.4358H63.0258V72.0704V67.705H69.3011C75.3035 67.705 75.6855 67.7596 76.9406 69.0692ZM76.9406 82.1654C77.8136 82.984 78.3047 84.1299 78.3047 85.1667C78.3047 86.2035 77.8136 87.3494 76.9406 88.1679C75.6855 89.4775 75.3035 89.5321 69.3011 89.5321H63.0258V85.1667V80.8013H69.3011C75.3035 80.8013 75.6855 80.8558 76.9406 82.1654Z" fill="#2565E9"/>
<path d="M41.1987 80.1464C41.1987 85.1121 44.4182 92.2059 48.6745 96.6804C52.9854 101.21 60.6249 104.811 65.8634 104.811C67.2821 104.811 67.3913 104.647 67.3913 102.683V100.555L64.39 100.173C60.2975 99.6817 54.4041 96.6259 51.6212 93.5701C48.7291 90.5143 46.2735 85.3849 45.7824 81.5652L45.455 78.6185H43.3269C41.3624 78.6185 41.1987 78.7276 41.1987 80.1464Z" fill="#2565E9"/>
<path d="M105.152 44.35C104.224 45.2777 104.224 63.9398 105.152 64.8675C106.08 65.7951 124.742 65.7951 125.67 64.8675C126.597 63.9398 126.597 45.2777 125.67 44.35C125.233 43.9135 122.177 43.6952 115.411 43.6952C108.644 43.6952 105.589 43.9135 105.152 44.35ZM121.959 54.6088V61.1569H115.411H108.863V54.6088V48.0606H115.411H121.959V54.6088Z" fill="#2565E9"/>
<path d="M9.11273 70.5426C8.18508 71.4703 8.18508 90.1325 9.11273 91.0601C10.0404 91.9878 28.7026 91.9878 29.6302 91.0601C30.5579 90.1325 30.5579 71.4703 29.6302 70.5426C28.7026 69.615 10.0404 69.615 9.11273 70.5426ZM25.9196 80.8014V87.3495H19.3715H12.8233V80.8014V74.2532H19.3715H25.9196V80.8014Z" fill="#2565E9"/>
<path d="M105.152 70.5426C104.224 71.4703 104.224 90.1325 105.152 91.0601C106.08 91.9878 124.742 91.9878 125.67 91.0601C126.597 90.1325 126.597 71.4703 125.67 70.5426C125.233 70.1061 122.177 69.8878 115.411 69.8878C108.644 69.8878 105.589 70.1061 105.152 70.5426ZM121.959 80.8014V87.3495H115.411H108.863V80.8014V74.2532H115.411H121.959V80.8014Z" fill="#2565E9"/>
</svg>
