<svg width="83" height="117" viewBox="0 0 83 117" fill="none" xmlns="http://www.w3.org/2000/svg">
<path d="M15.7565 116.452C13.6863 116.454 11.6361 116.048 9.72326 115.256C7.81043 114.464 6.07251 113.303 4.609 111.839C3.14549 110.375 1.98512 108.636 1.19432 106.723C0.403529 104.81 -0.00216548 102.76 0.000465192 100.689V60.1045C-0.0271734 56.5266 1.17752 53.0482 3.41213 50.2538C5.64674 47.4594 8.77507 45.5193 12.2715 44.7595V29.1415C12.2715 21.4127 15.3417 14.0004 20.8068 8.53535C26.2719 3.07026 33.6842 0 41.413 0C49.1418 0 56.554 3.07026 62.0191 8.53535C67.4842 14.0004 70.5545 21.4127 70.5545 29.1415V44.7595C74.0385 45.5434 77.1519 47.49 79.3822 50.2791C81.6126 53.0681 82.8269 56.5333 82.8255 60.1045V100.689C82.7982 104.885 81.1099 108.899 78.1299 111.853C75.15 114.807 71.1212 116.459 66.9255 116.45L15.7565 116.452ZM9.20047 60.1045V100.689C9.19311 102.443 9.87671 104.128 11.1032 105.381C12.3297 106.634 14.0004 107.354 15.7535 107.383H66.9275C68.6965 107.361 70.3868 106.649 71.6384 105.399C72.8899 104.148 73.6036 102.458 73.6275 100.689V60.1045C73.6036 58.3355 72.8899 56.6458 71.6384 55.3954C70.3868 54.145 68.6965 53.4328 66.9275 53.4105H15.7565C14.0029 53.4397 12.3314 54.1587 11.1043 55.4116C9.87713 56.6646 9.19312 58.3507 9.20047 60.1045ZM21.3355 29.1415V44.3415H61.3525V29.1415C61.3151 23.8594 59.1906 18.8064 55.4424 15.0845C51.6941 11.3627 46.6262 9.27395 41.344 9.27395C36.0618 9.27395 30.9938 11.3627 27.2456 15.0845C23.4973 18.8064 21.3728 23.8594 21.3355 29.1415ZM36.8095 91.3475V82.1425C36.0576 81.5187 35.4638 80.726 35.0764 79.8292C34.689 78.9323 34.5191 77.9565 34.5805 76.9815C34.5695 76.0776 34.7381 75.1804 35.0765 74.3421C35.4148 73.5038 35.9162 72.741 36.5516 72.0979C37.1869 71.4548 37.9436 70.9442 38.7778 70.5958C39.6119 70.2473 40.507 70.0679 41.411 70.0679C42.315 70.0679 43.21 70.2473 44.0442 70.5958C44.8783 70.9442 45.635 71.4548 46.2703 72.0979C46.9057 72.741 47.4071 73.5038 47.7454 74.3421C48.0838 75.1804 48.2524 76.0776 48.2415 76.9815C48.2402 77.9481 48.0419 78.9043 47.6586 79.7916C47.2754 80.679 46.7153 81.4789 46.0125 82.1425V91.3475C45.9935 92.5859 45.4836 93.7662 44.5947 94.6287C43.7059 95.4913 42.5109 95.9657 41.2725 95.9475C40.6771 95.9396 40.0891 95.8142 39.5423 95.5785C38.9954 95.3428 38.5005 95.0015 38.0859 94.5741C37.6712 94.1468 37.3451 93.6418 37.126 93.0881C36.907 92.5344 36.7994 91.9429 36.8095 91.3475Z" fill="#2565E9"/>
</svg>
