<svg width="420" height="551" viewBox="0 0 420 551" fill="none" xmlns="http://www.w3.org/2000/svg">
<path d="M415.7 197.1L382.9 177.7C374.3 173.6 364.5 173.3 355.7 176.9L315 198.7L282.1 178C272.6 172.5 261.2 172 251.3 176.5L209.7 198.7L181 177.9C171.4 172.5 159.8 172.1 149.9 176.8L110.5 198.7L74.3002 176.3C65.3002 171.8 54.8002 171.7 45.7002 175.8L3.7002 197.1C6.1002 87.3 103 5.40002 211.7 5.40002C320.4 5.40002 413.8 92 415.7 197.1Z" fill="#2465E9"/>
<path d="M5.7002 194.6L146.1 356.2" stroke="#2465E9" stroke-width="5" stroke-miterlimit="10"/>
<path d="M109.9 195.5L165.9 350.6" stroke="#2465E9" stroke-width="5" stroke-miterlimit="10"/>
<path d="M209.1 192.2L209.7 339.1" stroke="#2465E9" stroke-width="5" stroke-miterlimit="10"/>
<path d="M315.8 192.2L257.9 359.2" stroke="#2465E9" stroke-width="5" stroke-miterlimit="10"/>
<path d="M413 195L276.7 366.7" stroke="#2465E9" stroke-width="5" stroke-miterlimit="10"/>
<path d="M200.5 439.6L193.5 466.5C193.5 466.5 210.8 470.6 217.9 469.9C219.3 469.8 220.6 469.3 221.7 469C226.2 467.5 229.7 463.9 230.5 459.5C230.9 457.2 230.6 454.5 228.7 451.7C223.5 444.2 200.5 439.6 200.5 439.6Z" fill="#2465E9"/>
<path d="M208.2 407.9L202.2 431.9C202.2 431.9 217.6 435.4 224 434.7C225.2 434.6 226.4 434.1 227.4 433.9C231.4 432.5 234.5 429.3 235.2 425.4C235.5 423.3 235.2 420.9 233.5 418.5C228.8 411.8 208.2 407.9 208.2 407.9Z" fill="#2465E9"/>
<path d="M209.1 331.8C149.6 331.8 101.3 380.1 101.3 439.6C101.3 499.1 149.6 547.4 209.1 547.4C268.6 547.4 316.9 499.1 316.9 439.6C316.9 380.1 268.6 331.8 209.1 331.8ZM253.5 466.2C248 485 237.7 490 210.6 485.4L205.8 505.2L193.9 502.3L198.8 482.6L189.2 480.3L184.4 499.9L172.3 496.8L177.1 476.8L153.4 470.9L159.3 457.3L167.4 459.4C167.4 459.4 172.8 460.6 174.1 453.9L185.1 408.9C185.3 408.2 185.4 407.6 185.7 406.9C186.2 405.3 187.7 400.6 185.7 398.9C182.9 396.6 172.9 394.3 172.9 394.3L175.8 381.3L199.7 387.4L204.6 367.7L216.6 370.7L211.9 389.8L221.2 392.1L226.2 372.6L237.9 376L233.2 395.5C233.2 395.5 253.1 402.2 256.2 412.9C259.3 423.6 255.4 437.5 242 440.4C242 440.4 259 447.4 253.5 466.2Z" fill="#2465E9"/>
</svg>
