<svg width="424" height="558" viewBox="0 0 424 558" fill="none" xmlns="http://www.w3.org/2000/svg">
<path d="M418.4 201.4L385.6 182C377 177.9 367.2 177.6 358.4 181.2L317.7 203L284.8 182.3C275.3 176.8 263.9 176.3 254 180.8L212.4 203L183.7 182.2C174.1 176.8 162.5 176.4 152.6 181.1L113.2 203L76.9999 180.6C67.9999 176.1 57.4999 176 48.3999 180.1L6.3999 201.4C8.7999 91.5999 105.7 9.69995 214.4 9.69995C323.1 9.69995 416.5 96.2999 418.4 201.4Z" fill="#2465E9"/>
<path d="M8.3999 198.9L148.8 360.5" stroke="#2465E9" stroke-width="5" stroke-miterlimit="10"/>
<path d="M112.6 199.8L168.6 354.9" stroke="#2465E9" stroke-width="5" stroke-miterlimit="10"/>
<path d="M211.8 196.5L212.4 343.4" stroke="#2465E9" stroke-width="5" stroke-miterlimit="10"/>
<path d="M318.5 196.5L260.6 363.5" stroke="#2465E9" stroke-width="5" stroke-miterlimit="10"/>
<path d="M415.7 199.3L279.4 371" stroke="#2465E9" stroke-width="5" stroke-miterlimit="10"/>
<path d="M178.3 445C179.8 444.3 180.8 443.3 181.5 442C182.2 440.7 182.5 439.1 182.5 437.3C182.5 435.5 182.2 433.9 181.5 432.6C180.8 431.3 179.7 430.2 178.3 429.5C176.8 428.8 174.9 428.4 172.4 428.4H162.8V446.1H172.5C174.9 446.1 176.8 445.7 178.3 445Z" fill="#2465E9"/>
<path d="M299.1 429.7C297.6 428.3 295.7 427.5 293.5 427.5C290.2 427.5 287.7 429.1 285.9 432.3C284.1 435.5 283.1 440 283.1 445.9C283.1 449.8 283.5 453.1 284.3 455.9C285.1 458.7 286.3 460.7 287.9 462.1C289.4 463.7 291.3 464.4 293.5 464.4C296.8 464.4 299.3 462.8 301.2 459.6C303 456.4 303.9 451.9 303.9 446C303.9 442.1 303.5 438.8 302.7 436C301.9 433.3 300.7 431.2 299.1 429.7Z" fill="#2465E9"/>
<path d="M212.5 337.5C153.5 337.5 105.6 385.4 105.6 444.4C105.6 503.4 153.5 551.3 212.5 551.3C271.5 551.3 319.4 503.4 319.4 444.4C319.4 385.4 271.6 337.5 212.5 337.5ZM147.7 468.4H120.2V423.5H147.4V428.3H125.6V443.5H145.9V448.3H125.6V463.6H147.7V468.4ZM183.3 468.7L173.8 451C173.4 451 173 451 172.6 451H162.8V468.6H157.3V423.5H172.5C176 423.5 178.9 424.1 181.2 425.3C183.5 426.5 185.1 428.1 186.2 430.2C187.3 432.3 187.8 434.7 187.8 437.3C187.8 440 187.3 442.3 186.2 444.4C185.1 446.5 183.4 448.1 181.2 449.2C180.6 449.5 180 449.8 179.4 450L189.6 468.7H183.3ZM202.3 456.1C203.6 458.8 205.4 460.8 207.6 462.2C209.8 463.6 212.3 464.3 215 464.3C216.5 464.3 217.9 464.1 219.3 463.7C220.7 463.3 221.9 462.7 223.1 461.9C224.3 461.1 225.2 460.1 226 458.9C226.8 457.7 227.4 456.3 227.7 454.8H233.2C232.8 457.1 232 459.2 231 461C229.9 462.8 228.6 464.4 226.9 465.6C225.3 466.9 223.5 467.8 221.5 468.5C219.5 469.2 217.4 469.5 215.1 469.5C211.3 469.5 207.8 468.6 204.8 466.7C201.8 464.8 199.4 462.2 197.7 458.7C196 455.2 195.1 451.1 195.1 446.4C195.1 441.7 196 437.5 197.7 434.1C199.4 430.7 201.8 428 204.8 426.1C207.8 424.2 211.2 423.3 215.1 423.3C217.4 423.3 219.5 423.6 221.5 424.3C223.5 425 225.3 425.9 226.9 427.2C228.5 428.5 229.9 430 231 431.8C232.1 433.2 232.8 435.3 233.2 437.6H227.7C227.4 436 226.8 434.6 226 433.5C225.2 432.3 224.2 431.3 223.1 430.5C222 429.7 220.7 429.1 219.3 428.7C217.9 428.3 216.5 428.1 215 428.1C212.3 428.1 209.8 428.8 207.6 430.2C205.4 431.6 203.6 433.6 202.3 436.3C201 439 200.4 442.3 200.4 446.2C200.4 450.1 201 453.4 202.3 456.1ZM269.6 468.6H241.2V464.6L256.1 448.3C257.8 446.4 259.3 444.7 260.4 443.3C261.5 441.9 262.4 440.5 262.9 439.3C263.5 438 263.7 436.7 263.7 435.3C263.7 433.7 263.3 432.3 262.6 431.2C261.8 430 260.8 429.1 259.5 428.5C258.2 427.9 256.7 427.6 255.1 427.6C253.4 427.6 251.9 428 250.6 428.7C249.3 429.4 248.3 430.4 247.6 431.7C246.9 433 246.6 434.5 246.6 436.2H241.4C241.4 433.6 242 431.2 243.2 429.2C244.4 427.2 246.1 425.6 248.2 424.5C250.3 423.4 252.7 422.8 255.3 422.8C257.9 422.8 260.3 423.4 262.3 424.5C264.3 425.6 265.9 427.1 267.1 429C268.3 430.9 268.8 433 268.8 435.3C268.8 437 268.5 438.6 267.9 440.2C267.3 441.8 266.3 443.5 264.8 445.5C263.3 447.4 261.3 449.8 258.7 452.6L248.6 463.4V463.8H269.6V468.6ZM302.1 466.5C299.7 468.3 296.8 469.2 293.5 469.2C290.2 469.2 287.4 468.3 285 466.5C282.6 464.7 280.9 462.1 279.7 458.6C278.5 455.1 277.9 451 277.9 446.1C277.9 441.2 278.5 437.1 279.8 433.6C281 430.1 282.8 427.5 285.2 425.7C287.5 423.9 290.4 423 293.6 423C296.8 423 299.7 423.9 302 425.7C304.3 427.5 306.1 430.2 307.4 433.6C308.6 437.1 309.3 441.2 309.3 446.1C309.3 451 308.7 455.2 307.5 458.6C306.3 462.1 304.5 464.7 302.1 466.5Z" fill="#2465E9"/>
</svg>
